<svg width="24" height="24" viewBox="0 0 24 24" fill="none" xmlns="http://www.w3.org/2000/svg">
<path d="M9.96634 14.8671C9.96634 15.2004 9.86634 15.4671 9.66634 15.6337C9.46634 15.8004 9.16634 15.9004 8.76634 15.9004H8.49967V17.0004H7.83301V13.9004H8.83301C9.19967 13.9004 9.49967 13.9671 9.69967 14.1337C9.86634 14.3004 9.96634 14.5671 9.96634 14.8671ZM8.46634 15.3671H8.66634C8.86634 15.3671 9.03301 15.3337 9.13301 15.2337C9.23301 15.1337 9.29967 15.0337 9.29967 14.9004C9.29967 14.7337 9.26634 14.6337 9.16634 14.5671C9.06634 14.5004 8.96634 14.4671 8.76634 14.4671H8.46634V15.3671Z" fill="#903938"/>
<path d="M13.2005 15.4337C13.2005 15.9337 13.0671 16.3337 12.7671 16.6004C12.4671 16.8671 12.0671 17.0004 11.5005 17.0004H10.6338V13.9004H11.6005C12.1005 13.9004 12.5005 14.0337 12.7671 14.3004C13.0671 14.5671 13.2005 14.9337 13.2005 15.4337ZM12.5005 15.4337C12.5005 14.7671 12.2005 14.4337 11.6338 14.4337H11.3005V16.4337H11.5671C12.2005 16.4671 12.5005 16.1337 12.5005 15.4337Z" fill="#903938"/>
<path d="M14.5669 17.0004H13.9336V13.9004H15.7003V14.4337H14.5669V15.2337H15.6003V15.7671H14.5669V17.0004Z" fill="#903938"/>
<path d="M14.333 2V7.33333H19.6663" stroke="#903938" stroke-width="1.5" stroke-miterlimit="10"/>
<path d="M19.667 12V7.33333L14.3337 2H3.66699V12" stroke="#903938" stroke-width="1.5" stroke-miterlimit="10" stroke-linecap="square"/>
<path d="M3.66699 19V22H19.667V19" stroke="#903938" stroke-width="1.5" stroke-miterlimit="10" stroke-linecap="square"/>
<path d="M21.3333 12H2" stroke="#903938" stroke-width="1.5" stroke-miterlimit="10"/>
<path d="M3.66667 10.334L2 12.0007V19.0007H21.3333V12.0007L19.6667 10.334" stroke="#903938" stroke-width="1.5" stroke-miterlimit="10"/>
</svg>
