<svg width="24" height="24" viewBox="0 0 24 24" fill="none" xmlns="http://www.w3.org/2000/svg">
<path d="M3 4.66667L17.6667 2V22L3 19.3333V4.66667Z" stroke="#2A579A" stroke-width="1.5" stroke-miterlimit="10" stroke-linecap="square"/>
<path d="M21.667 6.62352L17.667 4.66797V19.3346L21.667 17.3791V6.62352Z" stroke="#2A579A" stroke-width="1.5" stroke-miterlimit="10" stroke-linecap="square"/>
<path d="M12.0776 16.4004L11.1725 13.1346C11.0628 12.7886 10.8645 11.9848 10.5776 10.7232H10.5206C10.2759 11.8624 10.0818 12.6704 9.93836 13.1472L9.00799 16.4004H7.36242L5.40039 9.40039H6.91938L7.81178 12.8498C8.01431 13.7021 8.15777 14.432 8.24216 15.0396H8.28014C8.32233 14.7316 8.38562 14.3793 8.47001 13.9827C8.55862 13.5818 8.63457 13.2822 8.69786 13.0839L9.76115 9.40039H11.3941L12.4257 13.0839C12.489 13.2907 12.5671 13.6071 12.6599 14.0333C12.7569 14.4595 12.8139 14.7907 12.8308 15.027H12.8814C12.9447 14.508 13.0924 13.7822 13.3244 12.8498L14.2295 9.40039H15.7232L13.7485 16.4004H12.0776Z" fill="#2A579A"/>
</svg>
