<svg width="20" height="20" viewBox="0 0 20 20" fill="none" xmlns="http://www.w3.org/2000/svg">
<path d="M5.8648 9.5207H4.82026C4.64791 9.5207 4.5069 9.37969 4.5069 9.20734V8.1628C4.5069 7.99045 4.64791 7.84943 4.82026 7.84943H5.8648C6.03715 7.84943 6.17817 7.99045 6.17817 8.1628V9.20734C6.17817 9.37969 6.03715 9.5207 5.8648 9.5207ZM8.68507 9.20734V8.1628C8.68507 7.99045 8.54405 7.84943 8.3717 7.84943H7.32716C7.15481 7.84943 7.0138 7.99045 7.0138 8.1628V9.20734C7.0138 9.37969 7.15481 9.5207 7.32716 9.5207H8.3717C8.54405 9.5207 8.68507 9.37969 8.68507 9.20734ZM11.192 9.20734V8.1628C11.192 7.99045 11.051 7.84943 10.8786 7.84943H9.83406C9.66171 7.84943 9.5207 7.99045 9.5207 8.1628V9.20734C9.5207 9.37969 9.66171 9.5207 9.83406 9.5207H10.8786C11.051 9.5207 11.192 9.37969 11.192 9.20734ZM8.68507 11.7142V10.6697C8.68507 10.4973 8.54405 10.3563 8.3717 10.3563H7.32716C7.15481 10.3563 7.0138 10.4973 7.0138 10.6697V11.7142C7.0138 11.8866 7.15481 12.0276 7.32716 12.0276H8.3717C8.54405 12.0276 8.68507 11.8866 8.68507 11.7142ZM6.17817 11.7142V10.6697C6.17817 10.4973 6.03715 10.3563 5.8648 10.3563H4.82026C4.64791 10.3563 4.5069 10.4973 4.5069 10.6697V11.7142C4.5069 11.8866 4.64791 12.0276 4.82026 12.0276H5.8648C6.03715 12.0276 6.17817 11.8866 6.17817 11.7142ZM11.192 11.7142V10.6697C11.192 10.4973 11.051 10.3563 10.8786 10.3563H9.83406C9.66171 10.3563 9.5207 10.4973 9.5207 10.6697V11.7142C9.5207 11.8866 9.66171 12.0276 9.83406 12.0276H10.8786C11.051 12.0276 11.192 11.8866 11.192 11.7142ZM13.6989 4.92472V14.1167C13.6989 14.8087 13.1374 15.3701 12.4454 15.3701H3.25345C2.56144 15.3701 2 14.8087 2 14.1167V4.92472C2 4.23271 2.56144 3.67127 3.25345 3.67127H4.5069V2.31336C4.5069 2.14101 4.64791 2 4.82026 2H5.8648C6.03715 2 6.17817 2.14101 6.17817 2.31336V3.67127H9.5207V2.31336C9.5207 2.14101 9.66171 2 9.83406 2H10.8786C11.051 2 11.192 2.14101 11.192 2.31336V3.67127H12.4454C13.1374 3.67127 13.6989 4.23271 13.6989 4.92472ZM12.4454 13.96V6.17817H3.25345V13.96C3.25345 14.0462 3.32396 14.1167 3.41013 14.1167H12.2887C12.3749 14.1167 12.4454 14.0462 12.4454 13.96Z" fill="#1564A7"/>
<circle cx="11.5" cy="12.5" r="5.5" fill="white"/>
<path d="M14.8059 8.1418L14.8775 9.62368C14.4616 9.13298 13.9436 8.73888 13.3598 8.46882C12.776 8.19876 12.1403 8.05924 11.497 8.05998C9.32885 8.05998 7.5238 9.61616 7.13672 11.6733C7.131 11.7043 7.13216 11.7362 7.14013 11.7667C7.1481 11.7972 7.16269 11.8255 7.18285 11.8497C7.20301 11.874 7.22826 11.8935 7.25679 11.9068C7.28533 11.9202 7.31647 11.9272 7.34799 11.9272H8.22616C8.27457 11.9271 8.32155 11.9107 8.35947 11.8806C8.39739 11.8505 8.42404 11.8085 8.4351 11.7614C8.57831 11.167 8.89143 10.6272 9.33625 10.2077C9.78107 9.7883 10.3384 9.5074 10.9401 9.39931C11.5419 9.29123 12.1621 9.36062 12.725 9.59903C13.288 9.83745 13.7694 10.2346 14.1106 10.7419L12.294 10.6549C12.265 10.6535 12.2359 10.6581 12.2087 10.6683C12.1814 10.6784 12.1565 10.694 12.1355 10.7141C12.1144 10.7342 12.0977 10.7584 12.0863 10.7851C12.0748 10.8119 12.069 10.8407 12.069 10.8698V11.7186C12.069 11.7756 12.0916 11.8302 12.1319 11.8705C12.1722 11.9108 12.2269 11.9334 12.2838 11.9334H15.8685C15.9255 11.9334 15.9801 11.9108 16.0204 11.8705C16.0607 11.8302 16.0834 11.7756 16.0834 11.7186V8.13159C16.0834 8.07461 16.0607 8.01997 16.0204 7.97967C15.9801 7.93938 15.9255 7.91675 15.8685 7.91675H15.0204C14.9914 7.91676 14.9626 7.92268 14.9359 7.93413C14.9092 7.94558 14.8851 7.96233 14.865 7.98337C14.845 8.00441 14.8294 8.02929 14.8192 8.05653C14.8091 8.08376 14.8045 8.11277 14.8059 8.1418ZM11.497 15.6511C10.9804 15.6516 10.4716 15.5247 10.0157 15.2818C9.5598 15.0388 9.17078 14.6873 8.88304 14.2582L10.7056 14.3454C10.7347 14.3468 10.7637 14.3423 10.791 14.3321C10.8182 14.3219 10.8432 14.3063 10.8642 14.2862C10.8852 14.2661 10.902 14.242 10.9134 14.2152C10.9248 14.1885 10.9307 14.1597 10.9307 14.1306V13.2819C10.9307 13.225 10.908 13.1703 10.8678 13.13C10.8275 13.0897 10.7728 13.0671 10.7158 13.0671H7.13153C7.07455 13.0671 7.0199 13.0897 6.97961 13.13C6.93932 13.1703 6.91669 13.225 6.91669 13.2819V16.8686C6.91669 16.9256 6.93932 16.9802 6.97961 17.0205C7.0199 17.0608 7.07455 17.0834 7.13153 17.0834H7.97927C8.00841 17.0835 8.03725 17.0776 8.06404 17.0661C8.09084 17.0546 8.11502 17.0378 8.13511 17.0167C8.15521 16.9956 8.1708 16.9707 8.18095 16.9433C8.19109 16.916 8.19557 16.8869 8.19411 16.8578L8.11981 15.3795C8.5357 15.8692 9.05322 16.2625 9.63642 16.532C10.2196 16.8015 10.8545 16.9408 11.497 16.9402C13.6653 16.9402 15.4703 15.384 15.8574 13.3269C15.8631 13.2959 15.862 13.264 15.854 13.2335C15.846 13.203 15.8314 13.1746 15.8113 13.1504C15.7911 13.1262 15.7659 13.1067 15.7373 13.0933C15.7088 13.0799 15.6777 13.073 15.6461 13.073H14.768C14.7196 13.0731 14.6726 13.0895 14.6347 13.1195C14.5967 13.1496 14.5701 13.1917 14.559 13.2388C14.3937 13.9263 14.0017 14.5382 13.4462 14.9758C12.8907 15.4134 12.2041 15.6513 11.497 15.6511Z" fill="#1564A7"/>
</svg>
