<svg width="24" height="24" viewBox="0 0 24 24" fill="none" xmlns="http://www.w3.org/2000/svg">
<path d="M3 4.66667L17.6667 2V22L3 19.3333V4.66667Z" stroke="#903938" stroke-width="1.5" stroke-miterlimit="10" stroke-linecap="square"/>
<path d="M21.6665 6.62352L17.6665 4.66797V19.3346L21.6665 17.3791V6.62352Z" stroke="#903938" stroke-width="1.5" stroke-miterlimit="10" stroke-linecap="square"/>
<path d="M12.0771 16.4004L11.1721 13.1346C11.0623 12.7886 10.864 11.9848 10.5771 10.7232H10.5202C10.2754 11.8624 10.0813 12.6704 9.93788 13.1472L9.0075 16.4004H7.36193L5.3999 9.40039H6.91889L7.81129 12.8498C8.01383 13.7021 8.15729 14.432 8.24167 15.0396H8.27965C8.32184 14.7316 8.38513 14.3793 8.46952 13.9827C8.55813 13.5818 8.63408 13.2822 8.69737 13.0839L9.76066 9.40039H11.3936L12.4252 13.0839C12.4885 13.2907 12.5666 13.6071 12.6594 14.0333C12.7564 14.4595 12.8134 14.7907 12.8303 15.027H12.8809C12.9442 14.508 13.0919 13.7822 13.324 12.8498L14.229 9.40039H15.7227L13.748 16.4004H12.0771Z" fill="#903938"/>
</svg>
